<?xml version="1.0" encoding="UTF-8" standalone="no"?><svg xmlns="http://www.w3.org/2000/svg" xmlns:xlink="http://www.w3.org/1999/xlink" contentScriptType="application/ecmascript" contentStyleType="text/css" height="239px" preserveAspectRatio="none" style="width:437px;height:239px;" version="1.1" viewBox="0 0 437 239" width="437px" zoomAndPan="magnify"><defs><filter height="300%" id="f1igas94k0d52c" width="300%" x="-1" y="-1"><feGaussianBlur result="blurOut" stdDeviation="2.0"/><feColorMatrix in="blurOut" result="blurOut2" type="matrix" values="0 0 0 0 0 0 0 0 0 0 0 0 0 0 0 0 0 0 .4 0"/><feOffset dx="4.0" dy="4.0" in="blurOut2" result="blurOut3"/><feBlend in="SourceGraphic" in2="blurOut3" mode="normal"/></filter></defs><g><!--MD5=[fe08ed1c615dc951cb8da0700f0c6cae]
class BaseAction--><rect fill="#FEFECE" filter="url(#f1igas94k0d52c)" height="112.0234" id="BaseAction" style="stroke: #A80036; stroke-width: 1.5;" width="420" x="6" y="116"/><ellipse cx="177.25" cy="132" fill="#A9DCDF" rx="11" ry="11" style="stroke: #A80036; stroke-width: 1.0;"/><path d="M177.3594,127.3438 L176.2031,132.4219 L178.5313,132.4219 L177.3594,127.3438 Z M175.875,125.1094 L178.8594,125.1094 L182.2188,137.5 L179.7656,137.5 L179,134.4375 L175.7188,134.4375 L174.9688,137.5 L172.5313,137.5 L175.875,125.1094 Z "/><text fill="#000000" font-family="sans-serif" font-size="12" font-style="italic" lengthAdjust="spacingAndGlyphs" textLength="69" x="197.75" y="136.1543">BaseAction</text><line style="stroke: #A80036; stroke-width: 1.5;" x1="7" x2="425" y1="148" y2="148"/><line style="stroke: #A80036; stroke-width: 1.5;" x1="7" x2="425" y1="156" y2="156"/><ellipse cx="17" cy="167" fill="#84BE84" rx="3" ry="3" style="stroke: #038048; stroke-width: 1.0;"/><text fill="#000000" font-family="sans-serif" font-size="11" font-style="italic" lengthAdjust="spacingAndGlyphs" textLength="140" x="26" y="170.2104">GetActionName() : string</text><ellipse cx="17" cy="179.8047" fill="#84BE84" rx="3" ry="3" style="stroke: #038048; stroke-width: 1.0;"/><text fill="#000000" font-family="sans-serif" font-size="11" font-style="italic" lengthAdjust="spacingAndGlyphs" textLength="394" x="26" y="183.0151">TakeAction(gridPosition:GridPosition, onActionComplete:Action) : void</text><ellipse cx="17" cy="192.6094" fill="#84BE84" rx="3" ry="3" style="stroke: #038048; stroke-width: 1.0;"/><text fill="#000000" font-family="sans-serif" font-size="11" lengthAdjust="spacingAndGlyphs" textLength="377" x="26" y="195.8198">«virtual» IsValidActionGridPosition(gridPosition:GridPosition) : bool</text><ellipse cx="17" cy="205.4141" fill="#84BE84" rx="3" ry="3" style="stroke: #038048; stroke-width: 1.0;"/><text fill="#000000" font-family="sans-serif" font-size="11" font-style="italic" lengthAdjust="spacingAndGlyphs" textLength="295" x="26" y="208.6245">GetValidActionGridPositionList() : List&lt;GridPosition&gt;</text><ellipse cx="17" cy="218.2188" fill="#84BE84" rx="3" ry="3" style="stroke: #038048; stroke-width: 1.0;"/><text fill="#000000" font-family="sans-serif" font-size="11" lengthAdjust="spacingAndGlyphs" textLength="195" x="26" y="221.4292">«virtual» GetActionPointCost() : int</text><!--MD5=[83b3cf3d23d77c6f1e1b5291a241bc2a]
class MonoBehaviour--><rect fill="#FEFECE" filter="url(#f1igas94k0d52c)" height="48" id="MonoBehaviour" style="stroke: #A80036; stroke-width: 1.5;" width="128" x="152" y="8"/><ellipse cx="167" cy="24" fill="#ADD1B2" rx="11" ry="11" style="stroke: #A80036; stroke-width: 1.0;"/><path d="M169.9688,29.6406 Q169.3906,29.9375 168.75,30.0781 Q168.1094,30.2344 167.4063,30.2344 Q164.9063,30.2344 163.5781,28.5938 Q162.2656,26.9375 162.2656,23.8125 Q162.2656,20.6875 163.5781,19.0313 Q164.9063,17.375 167.4063,17.375 Q168.1094,17.375 168.75,17.5313 Q169.4063,17.6875 169.9688,17.9844 L169.9688,20.7031 Q169.3438,20.125 168.75,19.8594 Q168.1563,19.5781 167.5313,19.5781 Q166.1875,19.5781 165.5,20.6563 Q164.8125,21.7188 164.8125,23.8125 Q164.8125,25.9063 165.5,26.9844 Q166.1875,28.0469 167.5313,28.0469 Q168.1563,28.0469 168.75,27.7813 Q169.3438,27.5 169.9688,26.9219 L169.9688,29.6406 Z "/><text fill="#000000" font-family="sans-serif" font-size="12" lengthAdjust="spacingAndGlyphs" textLength="96" x="181" y="28.1543">MonoBehaviour</text><line style="stroke: #A80036; stroke-width: 1.5;" x1="153" x2="279" y1="40" y2="40"/><line style="stroke: #A80036; stroke-width: 1.5;" x1="153" x2="279" y1="48" y2="48"/><!--MD5=[8fe603840eeb373d28952b6af8a35a05]
reverse link MonoBehaviour to BaseAction--><path d="M216,76.25 C216,88.82 216,102.73 216,115.93 " fill="none" id="MonoBehaviour&lt;-BaseAction" style="stroke: #A80036; stroke-width: 1.0;"/><polygon fill="none" points="209,76.1,216,56.1,223,76.1,209,76.1" style="stroke: #A80036; stroke-width: 1.0;"/><!--MD5=[66aaa4fbae7d353b95909e7be7d9849b]
@startuml
abstract class BaseAction {
    + {abstract} GetActionName() : string
    + {abstract} TakeAction(gridPosition:GridPosition, onActionComplete:Action) : void
    + <<virtual>> IsValidActionGridPosition(gridPosition:GridPosition) : bool
    + {abstract} GetValidActionGridPositionList() : List<GridPosition>
    + <<virtual>> GetActionPointCost() : int
}
MonoBehaviour <|- - BaseAction
@enduml

PlantUML version 1.2020.02(Sun Mar 01 10:22:07 GMT 2020)
(GPL source distribution)
Java Runtime: OpenJDK Runtime Environment
JVM: OpenJDK 64-Bit Server VM
Java Version: 11.0.9+11-Ubuntu-0ubuntu1
Operating System: Linux
Default Encoding: ANSI_X3.4-1968
Language: en
Country: US
--></g></svg>