<?xml version="1.0" encoding="UTF-8" standalone="no"?><svg xmlns="http://www.w3.org/2000/svg" xmlns:xlink="http://www.w3.org/1999/xlink" contentScriptType="application/ecmascript" contentStyleType="text/css" height="213px" preserveAspectRatio="none" style="width:500px;height:213px;" version="1.1" viewBox="0 0 500 213" width="500px" zoomAndPan="magnify"><defs><filter height="300%" id="fkdztesrhjwf6" width="300%" x="-1" y="-1"><feGaussianBlur result="blurOut" stdDeviation="2.0"/><feColorMatrix in="blurOut" result="blurOut2" type="matrix" values="0 0 0 0 0 0 0 0 0 0 0 0 0 0 0 0 0 0 .4 0"/><feOffset dx="4.0" dy="4.0" in="blurOut2" result="blurOut3"/><feBlend in="SourceGraphic" in2="blurOut3" mode="normal"/></filter></defs><g><!--MD5=[9c968d98fb6f96ce23d8c3c92f03353c]
class MoveAction--><rect fill="#FEFECE" filter="url(#fkdztesrhjwf6)" height="86.4141" id="MoveAction" style="stroke: #A80036; stroke-width: 1.5;" width="483" x="6" y="116"/><ellipse cx="207.75" cy="132" fill="#ADD1B2" rx="11" ry="11" style="stroke: #A80036; stroke-width: 1.0;"/><path d="M210.7188,137.6406 Q210.1406,137.9375 209.5,138.0781 Q208.8594,138.2344 208.1563,138.2344 Q205.6563,138.2344 204.3281,136.5938 Q203.0156,134.9375 203.0156,131.8125 Q203.0156,128.6875 204.3281,127.0313 Q205.6563,125.375 208.1563,125.375 Q208.8594,125.375 209.5,125.5313 Q210.1563,125.6875 210.7188,125.9844 L210.7188,128.7031 Q210.0938,128.125 209.5,127.8594 Q208.9063,127.5781 208.2813,127.5781 Q206.9375,127.5781 206.25,128.6563 Q205.5625,129.7188 205.5625,131.8125 Q205.5625,133.9063 206.25,134.9844 Q206.9375,136.0469 208.2813,136.0469 Q208.9063,136.0469 209.5,135.7813 Q210.0938,135.5 210.7188,134.9219 L210.7188,137.6406 Z "/><text fill="#000000" font-family="sans-serif" font-size="12" lengthAdjust="spacingAndGlyphs" textLength="71" x="228.25" y="136.1543">MoveAction</text><line style="stroke: #A80036; stroke-width: 1.5;" x1="7" x2="488" y1="148" y2="148"/><line style="stroke: #A80036; stroke-width: 1.5;" x1="7" x2="488" y1="156" y2="156"/><ellipse cx="17" cy="167" fill="#84BE84" rx="3" ry="3" style="stroke: #038048; stroke-width: 1.0;"/><text fill="#000000" font-family="sans-serif" font-size="11" lengthAdjust="spacingAndGlyphs" textLength="457" x="26" y="170.2104">«override» TakeAction(gridPosition:GridPosition, onActionComplete:Action) : void</text><ellipse cx="17" cy="179.8047" fill="#84BE84" rx="3" ry="3" style="stroke: #038048; stroke-width: 1.0;"/><text fill="#000000" font-family="sans-serif" font-size="11" lengthAdjust="spacingAndGlyphs" textLength="362" x="26" y="183.0151">«override» GetValidActionGridPositionList() : List&lt;GridPosition&gt;</text><ellipse cx="17" cy="192.6094" fill="#84BE84" rx="3" ry="3" style="stroke: #038048; stroke-width: 1.0;"/><text fill="#000000" font-family="sans-serif" font-size="11" lengthAdjust="spacingAndGlyphs" textLength="205" x="26" y="195.8198">«override» GetActionName() : string</text><!--MD5=[fe08ed1c615dc951cb8da0700f0c6cae]
class BaseAction--><rect fill="#FEFECE" filter="url(#fkdztesrhjwf6)" height="48" id="BaseAction" style="stroke: #A80036; stroke-width: 1.5;" width="102" x="196.5" y="8"/><ellipse cx="211.5" cy="24" fill="#ADD1B2" rx="11" ry="11" style="stroke: #A80036; stroke-width: 1.0;"/><path d="M214.4688,29.6406 Q213.8906,29.9375 213.25,30.0781 Q212.6094,30.2344 211.9063,30.2344 Q209.4063,30.2344 208.0781,28.5938 Q206.7656,26.9375 206.7656,23.8125 Q206.7656,20.6875 208.0781,19.0313 Q209.4063,17.375 211.9063,17.375 Q212.6094,17.375 213.25,17.5313 Q213.9063,17.6875 214.4688,17.9844 L214.4688,20.7031 Q213.8438,20.125 213.25,19.8594 Q212.6563,19.5781 212.0313,19.5781 Q210.6875,19.5781 210,20.6563 Q209.3125,21.7188 209.3125,23.8125 Q209.3125,25.9063 210,26.9844 Q210.6875,28.0469 212.0313,28.0469 Q212.6563,28.0469 213.25,27.7813 Q213.8438,27.5 214.4688,26.9219 L214.4688,29.6406 Z "/><text fill="#000000" font-family="sans-serif" font-size="12" lengthAdjust="spacingAndGlyphs" textLength="70" x="225.5" y="28.1543">BaseAction</text><line style="stroke: #A80036; stroke-width: 1.5;" x1="197.5" x2="297.5" y1="40" y2="40"/><line style="stroke: #A80036; stroke-width: 1.5;" x1="197.5" x2="297.5" y1="48" y2="48"/><!--MD5=[09f0005d7ac0a723b6fbc679b1defecc]
reverse link BaseAction to MoveAction--><path d="M247.5,76.27 C247.5,89.12 247.5,103.17 247.5,115.94 " fill="none" id="BaseAction&lt;-MoveAction" style="stroke: #A80036; stroke-width: 1.0;"/><polygon fill="none" points="240.5,76.22,247.5,56.22,254.5,76.22,240.5,76.22" style="stroke: #A80036; stroke-width: 1.0;"/><!--MD5=[75d90d9e81265139c8a5e4981d69ca1d]
@startuml
class MoveAction {
    + <<override>> TakeAction(gridPosition:GridPosition, onActionComplete:Action) : void
    + <<override>> GetValidActionGridPositionList() : List<GridPosition>
    + <<override>> GetActionName() : string
}
BaseAction <|- - MoveAction
@enduml

PlantUML version 1.2020.02(Sun Mar 01 10:22:07 GMT 2020)
(GPL source distribution)
Java Runtime: OpenJDK Runtime Environment
JVM: OpenJDK 64-Bit Server VM
Java Version: 11.0.9+11-Ubuntu-0ubuntu1
Operating System: Linux
Default Encoding: ANSI_X3.4-1968
Language: en
Country: US
--></g></svg>