<?xml version="1.0" encoding="UTF-8" standalone="no"?><svg xmlns="http://www.w3.org/2000/svg" xmlns:xlink="http://www.w3.org/1999/xlink" contentScriptType="application/ecmascript" contentStyleType="text/css" height="385px" preserveAspectRatio="none" style="width:500px;height:385px;" version="1.1" viewBox="0 0 500 385" width="500px" zoomAndPan="magnify"><defs><filter height="300%" id="f17zq6sdonjogi" width="300%" x="-1" y="-1"><feGaussianBlur result="blurOut" stdDeviation="2.0"/><feColorMatrix in="blurOut" result="blurOut2" type="matrix" values="0 0 0 0 0 0 0 0 0 0 0 0 0 0 0 0 0 0 .4 0"/><feOffset dx="4.0" dy="4.0" in="blurOut2" result="blurOut3"/><feBlend in="SourceGraphic" in2="blurOut3" mode="normal"/></filter></defs><g><!--MD5=[fe08ed1c615dc951cb8da0700f0c6cae]
class BaseAction--><rect fill="#FEFECE" filter="url(#f17zq6sdonjogi)" height="112.0234" id="BaseAction" style="stroke: #A80036; stroke-width: 1.5;" width="420" x="37.5" y="116"/><ellipse cx="208.75" cy="132" fill="#A9DCDF" rx="11" ry="11" style="stroke: #A80036; stroke-width: 1.0;"/><path d="M208.8594,127.3438 L207.7031,132.4219 L210.0313,132.4219 L208.8594,127.3438 Z M207.375,125.1094 L210.3594,125.1094 L213.7188,137.5 L211.2656,137.5 L210.5,134.4375 L207.2188,134.4375 L206.4688,137.5 L204.0313,137.5 L207.375,125.1094 Z "/><text fill="#000000" font-family="sans-serif" font-size="12" font-style="italic" lengthAdjust="spacingAndGlyphs" textLength="69" x="229.25" y="136.1543">BaseAction</text><line style="stroke: #A80036; stroke-width: 1.5;" x1="38.5" x2="456.5" y1="148" y2="148"/><line style="stroke: #A80036; stroke-width: 1.5;" x1="38.5" x2="456.5" y1="156" y2="156"/><ellipse cx="48.5" cy="167" fill="#84BE84" rx="3" ry="3" style="stroke: #038048; stroke-width: 1.0;"/><text fill="#000000" font-family="sans-serif" font-size="11" font-style="italic" lengthAdjust="spacingAndGlyphs" textLength="140" x="57.5" y="170.2104">GetActionName() : string</text><ellipse cx="48.5" cy="179.8047" fill="#84BE84" rx="3" ry="3" style="stroke: #038048; stroke-width: 1.0;"/><text fill="#000000" font-family="sans-serif" font-size="11" font-style="italic" lengthAdjust="spacingAndGlyphs" textLength="394" x="57.5" y="183.0151">TakeAction(gridPosition:GridPosition, onActionComplete:Action) : void</text><ellipse cx="48.5" cy="192.6094" fill="#84BE84" rx="3" ry="3" style="stroke: #038048; stroke-width: 1.0;"/><text fill="#000000" font-family="sans-serif" font-size="11" lengthAdjust="spacingAndGlyphs" textLength="377" x="57.5" y="195.8198">«virtual» IsValidActionGridPosition(gridPosition:GridPosition) : bool</text><ellipse cx="48.5" cy="205.4141" fill="#84BE84" rx="3" ry="3" style="stroke: #038048; stroke-width: 1.0;"/><text fill="#000000" font-family="sans-serif" font-size="11" font-style="italic" lengthAdjust="spacingAndGlyphs" textLength="295" x="57.5" y="208.6245">GetValidActionGridPositionList() : List&lt;GridPosition&gt;</text><ellipse cx="48.5" cy="218.2188" fill="#84BE84" rx="3" ry="3" style="stroke: #038048; stroke-width: 1.0;"/><text fill="#000000" font-family="sans-serif" font-size="11" lengthAdjust="spacingAndGlyphs" textLength="195" x="57.5" y="221.4292">«virtual» GetActionPointCost() : int</text><!--MD5=[83b3cf3d23d77c6f1e1b5291a241bc2a]
class MonoBehaviour--><rect fill="#FEFECE" filter="url(#f17zq6sdonjogi)" height="48" id="MonoBehaviour" style="stroke: #A80036; stroke-width: 1.5;" width="128" x="183.5" y="8"/><ellipse cx="198.5" cy="24" fill="#ADD1B2" rx="11" ry="11" style="stroke: #A80036; stroke-width: 1.0;"/><path d="M201.4688,29.6406 Q200.8906,29.9375 200.25,30.0781 Q199.6094,30.2344 198.9063,30.2344 Q196.4063,30.2344 195.0781,28.5938 Q193.7656,26.9375 193.7656,23.8125 Q193.7656,20.6875 195.0781,19.0313 Q196.4063,17.375 198.9063,17.375 Q199.6094,17.375 200.25,17.5313 Q200.9063,17.6875 201.4688,17.9844 L201.4688,20.7031 Q200.8438,20.125 200.25,19.8594 Q199.6563,19.5781 199.0313,19.5781 Q197.6875,19.5781 197,20.6563 Q196.3125,21.7188 196.3125,23.8125 Q196.3125,25.9063 197,26.9844 Q197.6875,28.0469 199.0313,28.0469 Q199.6563,28.0469 200.25,27.7813 Q200.8438,27.5 201.4688,26.9219 L201.4688,29.6406 Z "/><text fill="#000000" font-family="sans-serif" font-size="12" lengthAdjust="spacingAndGlyphs" textLength="96" x="212.5" y="28.1543">MonoBehaviour</text><line style="stroke: #A80036; stroke-width: 1.5;" x1="184.5" x2="310.5" y1="40" y2="40"/><line style="stroke: #A80036; stroke-width: 1.5;" x1="184.5" x2="310.5" y1="48" y2="48"/><!--MD5=[9c968d98fb6f96ce23d8c3c92f03353c]
class MoveAction--><rect fill="#FEFECE" filter="url(#f17zq6sdonjogi)" height="86.4141" id="MoveAction" style="stroke: #A80036; stroke-width: 1.5;" width="483" x="6" y="288"/><ellipse cx="207.75" cy="304" fill="#ADD1B2" rx="11" ry="11" style="stroke: #A80036; stroke-width: 1.0;"/><path d="M210.7188,309.6406 Q210.1406,309.9375 209.5,310.0781 Q208.8594,310.2344 208.1563,310.2344 Q205.6563,310.2344 204.3281,308.5938 Q203.0156,306.9375 203.0156,303.8125 Q203.0156,300.6875 204.3281,299.0313 Q205.6563,297.375 208.1563,297.375 Q208.8594,297.375 209.5,297.5313 Q210.1563,297.6875 210.7188,297.9844 L210.7188,300.7031 Q210.0938,300.125 209.5,299.8594 Q208.9063,299.5781 208.2813,299.5781 Q206.9375,299.5781 206.25,300.6563 Q205.5625,301.7188 205.5625,303.8125 Q205.5625,305.9063 206.25,306.9844 Q206.9375,308.0469 208.2813,308.0469 Q208.9063,308.0469 209.5,307.7813 Q210.0938,307.5 210.7188,306.9219 L210.7188,309.6406 Z "/><text fill="#000000" font-family="sans-serif" font-size="12" lengthAdjust="spacingAndGlyphs" textLength="71" x="228.25" y="308.1543">MoveAction</text><line style="stroke: #A80036; stroke-width: 1.5;" x1="7" x2="488" y1="320" y2="320"/><line style="stroke: #A80036; stroke-width: 1.5;" x1="7" x2="488" y1="328" y2="328"/><ellipse cx="17" cy="339" fill="#84BE84" rx="3" ry="3" style="stroke: #038048; stroke-width: 1.0;"/><text fill="#000000" font-family="sans-serif" font-size="11" lengthAdjust="spacingAndGlyphs" textLength="457" x="26" y="342.2104">«override» TakeAction(gridPosition:GridPosition, onActionComplete:Action) : void</text><ellipse cx="17" cy="351.8047" fill="#84BE84" rx="3" ry="3" style="stroke: #038048; stroke-width: 1.0;"/><text fill="#000000" font-family="sans-serif" font-size="11" lengthAdjust="spacingAndGlyphs" textLength="362" x="26" y="355.0151">«override» GetValidActionGridPositionList() : List&lt;GridPosition&gt;</text><ellipse cx="17" cy="364.6094" fill="#84BE84" rx="3" ry="3" style="stroke: #038048; stroke-width: 1.0;"/><text fill="#000000" font-family="sans-serif" font-size="11" lengthAdjust="spacingAndGlyphs" textLength="205" x="26" y="367.8198">«override» GetActionName() : string</text><!--MD5=[8fe603840eeb373d28952b6af8a35a05]
reverse link MonoBehaviour to BaseAction--><path d="M247.5,76.25 C247.5,88.82 247.5,102.73 247.5,115.93 " fill="none" id="MonoBehaviour&lt;-BaseAction" style="stroke: #A80036; stroke-width: 1.0;"/><polygon fill="none" points="240.5,76.1,247.5,56.1,254.5,76.1,240.5,76.1" style="stroke: #A80036; stroke-width: 1.0;"/><!--MD5=[09f0005d7ac0a723b6fbc679b1defecc]
reverse link BaseAction to MoveAction--><path d="M247.5,248.61 C247.5,262.16 247.5,275.82 247.5,287.97 " fill="none" id="BaseAction&lt;-MoveAction" style="stroke: #A80036; stroke-width: 1.0;"/><polygon fill="none" points="240.5,248.35,247.5,228.35,254.5,248.35,240.5,248.35" style="stroke: #A80036; stroke-width: 1.0;"/><!--MD5=[b3b73dc07d6f1cd8fad19a6f9e82e724]
@startuml
abstract class BaseAction {
    + {abstract} GetActionName() : string
    + {abstract} TakeAction(gridPosition:GridPosition, onActionComplete:Action) : void
    + <<virtual>> IsValidActionGridPosition(gridPosition:GridPosition) : bool
    + {abstract} GetValidActionGridPositionList() : List<GridPosition>
    + <<virtual>> GetActionPointCost() : int
}
MonoBehaviour <|- - BaseAction
class MoveAction {
    + <<override>> TakeAction(gridPosition:GridPosition, onActionComplete:Action) : void
    + <<override>> GetValidActionGridPositionList() : List<GridPosition>
    + <<override>> GetActionName() : string
}
BaseAction <|- - MoveAction
@enduml

PlantUML version 1.2020.02(Sun Mar 01 10:22:07 GMT 2020)
(GPL source distribution)
Java Runtime: OpenJDK Runtime Environment
JVM: OpenJDK 64-Bit Server VM
Java Version: 11.0.9+11-Ubuntu-0ubuntu1
Operating System: Linux
Default Encoding: ANSI_X3.4-1968
Language: en
Country: US
--></g></svg>